<?xml version="1.0" encoding="UTF-8"?>
<svg version="1.1" xmlns="http://www.w3.org/2000/svg" width="1500" height="1159">
<path d="M0 0 C5.86156711 5.44423871 13.53493189 13.69502879 14.8125 21.8125 C21.81139885 21.03355279 28.21515738 19.82542039 34.8125 17.3125 C52.33268321 10.72786352 71.55403775 11.27715246 89 17.9375 C99.21873682 22.57352093 111.38535779 29.84240185 115.98828125 40.546875 C116.26027344 41.29453125 116.53226563 42.0421875 116.8125 42.8125 C117.84890625 42.70550781 118.8853125 42.59851563 119.953125 42.48828125 C121.32283973 42.36632035 122.69263616 42.24527455 124.0625 42.125 C124.74441406 42.05216797 125.42632813 41.97933594 126.12890625 41.90429688 C129.35885375 41.63774781 131.39049107 41.57444368 134.25 43.1875 C136.17062441 45.18494938 136.51444825 46.05552129 136.8125 48.8125 C136.92464844 49.75029297 136.92464844 49.75029297 137.0390625 50.70703125 C137.08804687 51.40183594 137.13703125 52.09664063 137.1875 52.8125 C137.23648437 53.4725 137.28546875 54.1325 137.3359375 54.8125 C136.47896637 58.08689716 134.63761582 59.09385619 131.8125 60.8125 C128.48046875 61.203125 128.48046875 61.203125 125 61.0625 C123.83855469 61.02640625 122.67710937 60.9903125 121.48046875 60.953125 C120.60003906 60.90671875 119.71960938 60.8603125 118.8125 60.8125 C118.709375 61.69164062 118.60625 62.57078125 118.5 63.4765625 C116.58326768 72.77707048 109.36379649 80.46092901 101.8125 85.8125 C82.29747143 98.09389789 60.24333736 101.71480452 37.64453125 96.78515625 C28.70126447 94.51515275 21.56562556 91.19018478 14.5546875 85.16796875 C12.91731051 83.60781229 12.91731051 83.60781229 10.8125 83.8125 C9.62971868 85.35314849 8.51805431 86.94850749 7.4375 88.5625 C-7.23518551 109.10425972 -28.2218271 118.91475624 -51.51046753 127.01187134 C-67.44430559 132.57396259 -82.72266433 138.33149198 -96.1875 148.8125 C-96.80753906 149.26882813 -97.42757812 149.72515625 -98.06640625 150.1953125 C-114.12925302 162.77248559 -120.78414043 184.24711755 -123.76953125 203.58203125 C-125.74349209 220.62271943 -124.22955609 238.00803585 -121.1875 254.8125 C-121.0318457 255.67891113 -120.87619141 256.54532227 -120.71582031 257.43798828 C-112.18647533 303.2598087 -94.83690609 347.61153634 -79.0090332 391.27758789 C-70.1875 415.6582011 -70.1875 415.6582011 -70.1875 419.8125 C-69.60742188 419.83828125 -69.02734375 419.8640625 -68.4296875 419.890625 C-62.98648075 420.28584133 -59.41825592 421.0854055 -55.1875 424.8125 C-52.31991125 429.45640663 -51.72372501 433.48822511 -51.67578125 438.8359375 C-51.65783005 439.58211334 -51.63987885 440.32828918 -51.62138367 441.09707642 C-51.56756895 443.4604949 -51.53347933 445.82371486 -51.5 448.1875 C-51.46680128 449.79820454 -51.43230928 451.40888298 -51.39648438 453.01953125 C-51.31185982 456.95037687 -51.24491257 460.88116659 -51.1875 464.8125 C-53.8275 464.8125 -56.4675 464.8125 -59.1875 464.8125 C-59.5175 463.4925 -59.8475 462.1725 -60.1875 460.8125 C-60.09662109 461.48861328 -60.00574219 462.16472656 -59.91210938 462.86132812 C-55.01500559 501.20941775 -54.72236772 541.52486146 -60.1875 579.8125 C-60.36442383 581.10865234 -60.54134766 582.40480469 -60.72363281 583.74023438 C-67.39440502 632.29511394 -78.924982 679.55050048 -111.1875 717.8125 C-111.89777344 718.66972656 -112.60804688 719.52695312 -113.33984375 720.41015625 C-122.22541431 730.7636418 -132.8284776 738.24259075 -146.58984375 740.328125 C-153.32357613 740.67384755 -158.02313216 739.77357613 -163.3828125 735.58203125 C-169.66848982 729.41880219 -171.25411715 721.44718484 -171.5 712.9375 C-171.22133261 697.94171121 -169.00717619 681.01077206 -158.1875 669.8125 C-156.10124606 667.97121003 -153.9118222 666.29526716 -151.6875 664.625 C-150.44410089 663.66432656 -149.20194325 662.70204446 -147.9609375 661.73828125 C-147.33413086 661.25311035 -146.70732422 660.76793945 -146.06152344 660.26806641 C-129.74269628 647.59312536 -119.31578872 634.96177472 -116.43066406 613.9375 C-111.37024644 569.71473396 -128.27041427 515.40995652 -144.20117188 474.42919922 C-145.27494786 471.58050342 -146.24092917 468.7056821 -147.1875 465.8125 C-148.1775 465.874375 -149.1675 465.93625 -150.1875 466 C-157.47465601 465.97055695 -163.12766677 462.87233323 -168.1875 457.8125 C-171.741284 452.66564042 -172.35362837 446.95094321 -172.1875 440.8125 C-171.33917695 436.71418258 -169.95037201 432.86850349 -168.49731445 428.95239258 C-168.07581678 426.04110253 -168.92867426 424.88031476 -170.44140625 422.3828125 C-170.95872314 421.5168042 -171.47604004 420.6507959 -172.0090332 419.75854492 C-172.58355225 418.8276001 -173.15807129 417.89665527 -173.75 416.9375 C-174.34063232 415.96079346 -174.93126465 414.98408691 -175.53979492 413.9777832 C-181.9204576 403.4830618 -188.53565914 393.13661999 -195.1875 382.8125 C-306.06684616 210.5812326 -306.06684616 210.5812326 -286.65136719 117.23486328 C-276.49616263 72.11523683 -249.38654228 33.62717321 -210.40625 8.7265625 C-184.00085042 -7.75160638 -155.67283196 -18.13481993 -125.1875 -24.1875 C-124.34509766 -24.36539063 -123.50269531 -24.54328125 -122.63476562 -24.7265625 C-82.08270663 -33.15122768 -32.35547535 -27.22047695 0 0 Z M24.8125 31.8125 C23.87921875 32.33199219 22.9459375 32.85148437 21.984375 33.38671875 C19.07779472 36.63309708 19.39547404 38.64475533 19.57592773 42.87133789 C19.63337158 43.78004639 19.69081543 44.68875488 19.75 45.625 C20.05373446 54.05599863 19.23534704 60.88895186 16.58984375 68.87890625 C15.8049814 71.84087421 15.54572887 73.06585606 16.8125 75.8125 C25.0137476 85.38419107 37.54429586 89.95391289 49.82714844 90.98095703 C67.74409686 91.9754184 86.07280772 88.01219174 99.8125 75.8125 C105.77416086 69.27390421 109.50536221 62.15816902 109.1640625 53.17578125 C107.97679561 45.19470937 104.22319949 38.34287469 97.9140625 33.29296875 C76.05217228 17.70551995 47.43379825 17.95565574 24.8125 31.8125 Z M-68.1875 426.8125 C-67.5275 430.1125 -66.8675 433.4125 -66.1875 436.8125 C-64.2075 436.8125 -62.2275 436.8125 -60.1875 436.8125 C-61.19616647 431.58958119 -61.19616647 431.58958119 -64.75 427.875 C-66.89711501 426.74590243 -66.89711501 426.74590243 -68.1875 426.8125 Z M-163.1875 435.8125 C-163.1875 436.4725 -163.1875 437.1325 -163.1875 437.8125 C-162.5275 437.4825 -161.8675 437.1525 -161.1875 436.8125 C-161.8475 436.4825 -162.5075 436.1525 -163.1875 435.8125 Z M-64.1875 442.8125 C-63.5275 446.7725 -62.8675 450.7325 -62.1875 454.8125 C-60.05163322 451.60869983 -59.95617825 450.79310033 -60.0625 447.125 C-60.08054687 446.31675781 -60.09859375 445.50851562 -60.1171875 444.67578125 C-60.14039063 444.06089844 -60.16359375 443.44601562 -60.1875 442.8125 C-61.5075 442.8125 -62.8275 442.8125 -64.1875 442.8125 Z M-163.1875 444.8125 C-162.94148041 448.99483304 -162.56689366 451.31386834 -160 454.6875 C-156.95813716 457.32706341 -156.95813716 457.32706341 -151.1875 457.8125 C-153.1675 453.5225 -155.1475 449.2325 -157.1875 444.8125 C-159.1675 444.8125 -161.1475 444.8125 -163.1875 444.8125 Z " fill="#C2DF92" transform="translate(861.1875,244.1875)"/>
<path d="M0 0 C4.20703712 3.98598941 7.01010567 7.53014828 9 13 C10.55460938 12.83951172 10.55460938 12.83951172 12.140625 12.67578125 C13.51033973 12.55382035 14.88013616 12.43277455 16.25 12.3125 C16.93191406 12.23966797 17.61382813 12.16683594 18.31640625 12.09179688 C21.54635375 11.82524781 23.57799107 11.76194368 26.4375 13.375 C28.35812441 15.37244938 28.70194825 16.24302129 29 19 C29.11214844 19.93779297 29.11214844 19.93779297 29.2265625 20.89453125 C29.27554687 21.58933594 29.32453125 22.28414063 29.375 23 C29.42398437 23.66 29.47296875 24.32 29.5234375 25 C28.66646637 28.27439716 26.82511582 29.28135619 24 31 C20.66796875 31.390625 20.66796875 31.390625 17.1875 31.25 C16.02605469 31.21390625 14.86460937 31.1778125 13.66796875 31.140625 C12.78753906 31.09421875 11.90710938 31.0478125 11 31 C10.896875 31.87914062 10.79375 32.75828125 10.6875 33.6640625 C8.77076768 42.96457048 1.55129649 50.64842901 -6 56 C-25.51502857 68.28139789 -47.56916264 71.90230452 -70.16796875 66.97265625 C-83.25284828 63.65141771 -94.10197444 57.11877885 -102 46 C-106.25613167 38.16043832 -107.89203394 30.92033939 -107 22 C-106.10629277 19.11984306 -105.02576616 16.37614151 -103.89453125 13.58203125 C-102.26831196 8.88800964 -102.42378828 4.72863515 -104 0 C-110.65569837 -3.42293059 -118.0737442 -3.20886616 -125.375 -3.25 C-126.73625 -3.2809375 -126.73625 -3.2809375 -128.125 -3.3125 C-135.12561574 -3.35284937 -140.57891441 -2.30923278 -146.5 1.6875 C-148.72101515 5.11156502 -148.81624668 8.11439596 -148 12 C-147.21409307 13.56637507 -146.37618498 15.10727788 -145.5 16.625 C-141.64503748 23.77480228 -141.95020073 31.22032566 -143.6640625 39.0234375 C-147.18200579 49.9443571 -154.13749967 57.37232506 -164 63 C-167.92548109 64.908292 -171.88219222 66.55480785 -176 68 C-176.70914551 68.26256592 -177.41829102 68.52513184 -178.14892578 68.7956543 C-185.11241094 71.16947395 -191.56117576 71.41942725 -198.875 71.3125 C-199.96941406 71.31572266 -201.06382812 71.31894531 -202.19140625 71.32226562 C-220.41295726 71.20366381 -237.40364044 66.41509994 -250.875 53.625 C-255.41348596 48.87803235 -257.9206989 44.23790331 -260 38 C-261.04800781 37.96261719 -262.09601562 37.92523438 -263.17578125 37.88671875 C-264.55472305 37.82105485 -265.93362771 37.75460765 -267.3125 37.6875 C-268.00279297 37.66494141 -268.69308594 37.64238281 -269.40429688 37.61914062 C-272.25305896 37.46775713 -274.49798183 37.30701111 -276.9609375 35.80078125 C-278.41006035 33.28933151 -278.36289211 31.38397934 -278.3125 28.5 C-278.30669922 27.06140625 -278.30669922 27.06140625 -278.30078125 25.59375 C-278 23 -278 23 -276 20 C-273.04935852 19.7791436 -270.31631769 19.71939011 -267.375 19.8125 C-266.17230469 19.83280273 -266.17230469 19.83280273 -264.9453125 19.85351562 C-262.96325622 19.88890949 -260.98154449 19.94271766 -259 20 C-258.75121094 19.11054688 -258.50242187 18.22109375 -258.24609375 17.3046875 C-253.84245524 5.62607253 -240.47092489 -2.83590415 -229.609375 -7.97265625 C-212.95928982 -14.52800416 -195.13342664 -14.40573828 -178 -10 C-176.84886719 -9.47921875 -175.69773437 -8.9584375 -174.51171875 -8.421875 C-166.71817827 -5.26631467 -156.93920621 -5.90293012 -149.125 -8.875 C-148.36445312 -9.22304688 -147.60390625 -9.57109375 -146.8203125 -9.9296875 C-139.17801996 -12.82994811 -131.29535429 -13.38642555 -123.1875 -13.375 C-122.22118652 -13.37628906 -121.25487305 -13.37757813 -120.25927734 -13.37890625 C-113.67790785 -13.28178056 -108.32025903 -12.153613 -102.1171875 -9.9140625 C-91.5863898 -6.82608423 -82.10909569 -8.85206447 -72.15649414 -12.7109375 C-47.36483526 -22.31545426 -20.33675056 -16.24228478 0 0 Z M-83 2 C-83.93328125 2.51949219 -84.8665625 3.03898437 -85.828125 3.57421875 C-88.73470528 6.82059708 -88.41702596 8.83225533 -88.23657227 13.05883789 C-88.17912842 13.96754639 -88.12168457 14.87625488 -88.0625 15.8125 C-87.75876554 24.24349863 -88.57715296 31.07645186 -91.22265625 39.06640625 C-92.0075186 42.02837421 -92.26677113 43.25335606 -91 46 C-82.7987524 55.57169107 -70.26820414 60.14141289 -57.98535156 61.16845703 C-40.06840314 62.1629184 -21.73969228 58.19969174 -8 46 C-2.03833914 39.46140421 1.69286221 32.34566902 1.3515625 23.36328125 C0.16429561 15.38220937 -3.58930051 8.53037469 -9.8984375 3.48046875 C-31.76032772 -12.10698005 -60.37870175 -11.85684426 -83 2 Z " fill="#030402" transform="translate(969,274)"/>
<path d="M0 0 C0.65097656 0.45890625 1.30195312 0.9178125 1.97265625 1.390625 C3.33390625 2.2878125 3.33390625 2.2878125 4.72265625 3.203125 C10.95773171 9.26500392 14.91351665 16.41713235 15.34765625 25.140625 C15.13071233 33.6397221 11.74453579 40.46221596 5.94921875 46.578125 C-6.68995653 58.16819878 -22.66383712 61.20991272 -39.3203125 60.76953125 C-53.63025352 59.94378698 -68.52917331 53.98792889 -78.37109375 43.48046875 C-84.3415759 35.94695944 -86.08739419 27.87218728 -85.02734375 18.390625 C-83.7789193 15.04984116 -82.08617926 12.28980153 -80.02734375 9.390625 C-79.47046875 8.524375 -78.91359375 7.658125 -78.33984375 6.765625 C-58.27078465 -13.84584111 -23.43960339 -15.49596485 0 0 Z " fill="#C1DF91" transform="translate(803.02734375,278.609375)"/>
<path d="M0 0 C1.8125 1.6875 1.8125 1.6875 3 3 C3.61875 2.21625 4.2375 1.4325 4.875 0.625 C8.55454859 -3.01285399 12.92531715 -3.93820782 18 -4 C21.93487978 -3.08522453 24.81734747 -1.48431462 27.34765625 1.69140625 C30.65869941 7.18607644 31.12436814 11.64911824 31.09765625 17.953125 C31.0962413 18.61334656 31.09482635 19.27356812 31.09336853 19.95379639 C31.08779245 22.05257794 31.07524447 24.15125095 31.0625 26.25 C31.0574819 27.67708179 31.05291954 29.10416525 31.04882812 30.53125 C31.03783088 34.02086832 31.0205828 37.51042356 31 41 C28.03 41 25.06 41 22 41 C21.98541748 40.11739502 21.97083496 39.23479004 21.95581055 38.32543945 C21.89457933 35.03561357 21.8203967 31.7466007 21.73754883 28.45727539 C21.70439443 27.03648798 21.67633308 25.61557187 21.65356445 24.19458008 C21.61984153 22.1460918 21.56752255 20.0987728 21.51171875 18.05078125 C21.48553467 16.82012939 21.45935059 15.58947754 21.43237305 14.3215332 C20.96713927 10.74756059 20.22477002 8.81679113 18 6 C14.63825863 4.74588432 14.63825863 4.74588432 11 5 C8.27804116 6.59767149 6.4611368 7.69317027 5.38696289 10.73730469 C4.88499322 13.67248128 4.77830418 16.53901158 4.68359375 19.515625 C4.62075195 21.39121094 4.62075195 21.39121094 4.55664062 23.3046875 C4.51732422 24.60664062 4.47800781 25.90859375 4.4375 27.25 C4.37272461 29.22613281 4.37272461 29.22613281 4.30664062 31.2421875 C4.20058083 34.49468788 4.09851976 37.74726392 4 41 C1.36 41 -1.28 41 -4 41 C-4.01458252 40.1529248 -4.02916504 39.30584961 -4.04418945 38.43310547 C-4.10551177 35.26818066 -4.17971352 32.10388496 -4.26245117 28.93945312 C-4.29555386 27.5740075 -4.32363086 26.20842987 -4.34643555 24.84277344 C-4.38024991 22.87146776 -4.43408286 20.90053809 -4.48828125 18.9296875 C-4.51446533 17.74616699 -4.54064941 16.56264648 -4.56762695 15.34326172 C-5.04966185 11.61599697 -5.98521429 9.16471067 -8 6 C-11.35592863 4.66339855 -11.35592863 4.66339855 -15 5 C-18.42741629 7.08625339 -19.72481037 8.1744311 -21 12 C-21.15109093 14.20959253 -21.24873801 16.42300047 -21.31640625 18.63671875 C-21.35830078 19.93544922 -21.40019531 21.23417969 -21.44335938 22.57226562 C-21.48316987 23.94400761 -21.52288216 25.31575244 -21.5625 26.6875 C-21.60570835 28.07097645 -21.64932339 29.45444027 -21.69335938 30.83789062 C-21.79958028 34.22515719 -21.90162358 37.61249799 -22 41 C-24.97 41 -27.94 41 -31 41 C-31 26.48 -31 11.96 -31 -3 C-28.36 -3 -25.72 -3 -23 -3 C-22.67 -1.35 -22.34 0.3 -22 2 C-20.63875 0.7934375 -20.63875 0.7934375 -19.25 -0.4375 C-13.09722777 -5.50027062 -6.44881857 -4.65748008 0 0 Z " fill="#000000" transform="translate(374,668)"/>
<path d="M0 0 C2.97 0 5.94 0 9 0 C9 20.79 9 41.58 9 63 C6.36 63 3.72 63 1 63 C0.67 61.35 0.34 59.7 0 58 C-0.9075 58.804375 -1.815 59.60875 -2.75 60.4375 C-5.16449939 62.42988411 -6.81087183 63.71007926 -10 64 C-11.0725 64.103125 -12.145 64.20625 -13.25 64.3125 C-19.19703783 63.81691351 -23.86828044 61.60309833 -27.875 57.125 C-32.57930455 50.20690507 -32.77017884 43.13074871 -32 35 C-30.56858318 29.22290456 -27.77961286 24.80017385 -23.0546875 21.16015625 C-17.88880956 18.24330121 -12.83798215 17.67908248 -7.0625 18.6875 C-4 20 -4 20 -1 23 C-0.67 15.41 -0.34 7.82 0 0 Z M-21 31 C-23.57551793 36.25651782 -23.54818006 41.25675967 -23 47 C-21.82258259 50.29676875 -20.63909708 52.26258029 -18.375 54.875 C-14.62666215 56.65052846 -11.0643668 56.65320181 -7 56 C-2.87742492 53.63171219 -1.44881406 51.43540446 0 47 C0.66556165 40.57776226 0.89458174 34.424596 -3 29 C-5.56618149 26.14868723 -6.9947162 26.00068178 -10.875 25.5 C-15.6996859 25.68902687 -17.75061706 27.51851828 -21 31 Z " fill="#000000" transform="translate(1110,646)"/>
<path d="M0 0 C3.69186365 2.10324353 5.64923778 4.58153654 7.625 8.375 C8.625 12.375 8.625 12.375 8.625 22.375 C-0.945 22.375 -10.515 22.375 -20.375 22.375 C-18.42078632 30.84746538 -18.42078632 30.84746538 -15 33.375 C-8.29146476 35.93063247 -1.33702392 36.11550598 5.625 34.375 C6.12 37.345 6.12 37.345 6.625 40.375 C-2.74786966 43.22245407 -10.32102802 44.97559552 -19.375 40.375 C-23.81886006 37.55254834 -26.61746739 34.37009268 -28.375 29.375 C-30.02999996 21.24112424 -29.58379814 13.82058808 -25.3046875 6.55859375 C-18.93022534 -1.863295 -9.58830709 -4.24956627 0 0 Z M-20.375 13.375 C-20.375 14.035 -20.375 14.695 -20.375 15.375 C-19.715 15.045 -19.055 14.715 -18.375 14.375 C-19.035 14.045 -19.695 13.715 -20.375 13.375 Z " fill="#060705" transform="translate(718.375,666.625)"/>
<path d="M0 0 C4.01068823 3.53322535 5.45359643 6.80519389 6.05737305 12.11474609 C6.09830606 13.52146304 6.1241023 14.9286817 6.13671875 16.3359375 C6.15466995 17.08211334 6.17262115 17.82828918 6.19111633 18.59707642 C6.24493105 20.9604949 6.27902067 23.32371486 6.3125 25.6875 C6.34569872 27.29820454 6.38019072 28.90888298 6.41601562 30.51953125 C6.50064018 34.45037687 6.56758743 38.38116659 6.625 42.3125 C3.985 42.3125 1.345 42.3125 -1.375 42.3125 C-1.705 40.9925 -2.035 39.6725 -2.375 38.3125 C-3.48875 38.9725 -4.6025 39.6325 -5.75 40.3125 C-10.59445471 42.72182028 -15.0436292 43.23929596 -20.375 42.3125 C-23.76988422 40.26142412 -25.17823081 38.60765379 -27.375 35.3125 C-28.13826185 31.11455983 -28.28165622 27.05160214 -26.27734375 23.20703125 C-22.18501855 18.08889654 -17.69295425 15.73296848 -11.26171875 14.91796875 C-8.2993891 14.65689387 -5.34521729 14.45393892 -2.375 14.3125 C-3.9794256 9.5940365 -3.9794256 9.5940365 -7.0625 5.875 C-12.9176805 4.4507669 -17.8443991 5.10025964 -23.375 7.3125 C-23.705 5.3325 -24.035 3.3525 -24.375 1.3125 C-15.97948202 -2.47371399 -8.64782025 -4.32391013 0 0 Z M-6.375 20.3125 C-5.715 24.2725 -5.055 28.2325 -4.375 32.3125 C-2.23913322 29.10869983 -2.14367825 28.29310033 -2.25 24.625 C-2.26804687 23.81675781 -2.28609375 23.00851562 -2.3046875 22.17578125 C-2.32789063 21.56089844 -2.35109375 20.94601562 -2.375 20.3125 C-3.695 20.3125 -5.015 20.3125 -6.375 20.3125 Z " fill="#040503" transform="translate(803.375,666.6875)"/>
<path d="M0 0 C-0.33 2.64 -0.66 5.28 -1 8 C-1.7425 7.835 -2.485 7.67 -3.25 7.5 C-6.57389479 7.05681403 -9.77644692 6.79802681 -13.125 6.6875 C-14.13820313 6.65011719 -15.15140625 6.61273437 -16.1953125 6.57421875 C-19.10133851 6.79654638 -19.10133851 6.79654638 -21.3828125 8.72265625 C-23.19445531 10.857172 -23.19445531 10.857172 -23.171875 13.359375 C-23.03265625 14.14828125 -22.8934375 14.9371875 -22.75 15.75 C-22.55664062 16.94882812 -22.55664062 16.94882812 -22.359375 18.171875 C-22.24078125 18.77515625 -22.1221875 19.3784375 -22 20 C-21.319375 20.26296875 -20.63875 20.5259375 -19.9375 20.796875 C-16.57104303 22.17568982 -13.27739787 23.67432795 -10 25.25 C-9.39671875 25.52457031 -8.7934375 25.79914062 -8.171875 26.08203125 C-3.46924912 28.36178249 -0.99270096 30.84102588 2 35 C3.64480616 39.93441849 3.5902043 44.26410499 1.9375 49.125 C-1.33267016 53.97751056 -4.93882595 57.16026242 -10.375 59.375 C-17.99434221 60.68867969 -25.9821861 60.73169469 -33 57 C-33.83984375 55.03125 -33.83984375 55.03125 -34 53 C-33.0625 50.75 -33.0625 50.75 -32 49 C-29.23723823 49.52268466 -26.6739124 50.10869587 -24 51 C-19.13127506 51.39190975 -14.55027753 51.49608881 -9.875 50 C-7.48592989 47.45165855 -7.13770623 45.52370105 -6.65234375 42.1328125 C-7.19435753 38.80764934 -8.62633421 37.36994531 -11 35 C-14.21175175 33.07250069 -17.64365284 31.63055939 -21.06835938 30.12695312 C-26.04772366 27.81693876 -28.83125665 25.51560959 -32 21 C-33.55417619 16.33747142 -33.54448802 12.51246673 -31.875 7.875 C-24.52608249 -3.39334018 -11.81820436 -4.29752886 0 0 Z " fill="#000000" transform="translate(971,650)"/>
<path d="M0 0 C-0.33 2.64 -0.66 5.28 -1 8 C-1.7425 7.835 -2.485 7.67 -3.25 7.5 C-6.57389479 7.05681403 -9.77644692 6.79802681 -13.125 6.6875 C-14.13820312 6.65011719 -15.15140625 6.61273437 -16.1953125 6.57421875 C-19.10133851 6.79654638 -19.10133851 6.79654638 -21.3828125 8.72265625 C-23.19445531 10.857172 -23.19445531 10.857172 -23.171875 13.359375 C-23.03265625 14.14828125 -22.8934375 14.9371875 -22.75 15.75 C-22.55664062 16.94882812 -22.55664062 16.94882812 -22.359375 18.171875 C-22.24078125 18.77515625 -22.1221875 19.3784375 -22 20 C-21.319375 20.26296875 -20.63875 20.5259375 -19.9375 20.796875 C-16.57104303 22.17568982 -13.27739787 23.67432795 -10 25.25 C-9.39671875 25.52457031 -8.7934375 25.79914062 -8.171875 26.08203125 C-3.17014113 28.50678484 0.62124136 31.71219093 2.8125 36.9375 C3.35070373 42.857741 3.35053481 46.92015691 0 52 C-5.2524587 57.68677054 -10.54483973 59.9712144 -18.3125 60.3125 C-23.31143745 60.18343965 -28.55250265 59.36493907 -33 57 C-33.83984375 55.03125 -33.83984375 55.03125 -34 53 C-33.0625 50.75 -33.0625 50.75 -32 49 C-29.23723823 49.52268466 -26.6739124 50.10869587 -24 51 C-19.13127506 51.39190975 -14.55027753 51.49608881 -9.875 50 C-7.48592989 47.45165855 -7.13770623 45.52370105 -6.65234375 42.1328125 C-7.19435753 38.80764934 -8.62633421 37.36994531 -11 35 C-14.21175175 33.07250069 -17.64365284 31.63055939 -21.06835938 30.12695312 C-26.04772366 27.81693876 -28.83125665 25.51560959 -32 21 C-33.55417619 16.33747142 -33.54448802 12.51246673 -31.875 7.875 C-24.52608249 -3.39334018 -11.81820436 -4.29752886 0 0 Z " fill="#000000" transform="translate(261,650)"/>
<path d="M0 0 C4.74214914 5.64594697 6.41389646 10.75542277 6.10546875 18.16796875 C4.94386542 25.49422131 1.2822463 31.38603588 -4.59375 35.859375 C-9.78239456 39.1791789 -15.32844319 39.78284543 -21.33984375 38.9765625 C-27.49855725 37.10314692 -31.84616043 33.32835128 -35.33984375 27.9765625 C-38.50414356 21.47398077 -38.47711131 14.01772685 -36.53515625 7.1171875 C-33.69621104 0.65613978 -29.64749291 -2.96552529 -23.33984375 -6.0234375 C-15.03820742 -8.91096318 -6.03812411 -6.0257255 0 0 Z M-24.33984375 3.1640625 C-28.57190745 9.11540208 -29.33011839 14.81457618 -28.33984375 21.9765625 C-26.77624642 25.83883478 -24.97501822 28.99866404 -21.34765625 31.16796875 C-18.45939998 32.3311381 -16.43347932 32.34779877 -13.33984375 31.9765625 C-8.48112428 29.49956826 -6.04129119 27.17542968 -4.33984375 21.9765625 C-3.46811016 14.94888306 -3.99622176 8.77290087 -8.33984375 2.9765625 C-13.46878921 -0.44273447 -19.34167096 -0.48043849 -24.33984375 3.1640625 Z " fill="#000000" transform="translate(1199.33984375,671.0234375)"/>
<path d="M0 0 C5.0282008 5.95444831 6.3057002 12.052322 5.8125 19.625 C4.84758191 27.40867256 2.02299643 31.58519147 -3.95703125 36.51953125 C-8.8670283 40.07763619 -14.0694062 40.68129232 -20 40 C-27.01612735 38.6450691 -30.99820368 34.76436035 -35 29 C-37.99991325 23.13060451 -37.96739713 15.86346574 -36.3828125 9.53515625 C-33.86667499 3.02214543 -29.41311864 -1.97188039 -23.01953125 -4.91015625 C-14.54943605 -7.46301927 -6.71611287 -5.63483393 0 0 Z M-26 7 C-28.88865704 12.90861668 -28.78231067 18.653068 -26.75 24.75 C-24.04972014 29.85171654 -24.04972014 29.85171654 -19.17578125 32.6015625 C-15.22685527 33.3687824 -13.38230117 33.18754397 -9.6875 31.375 C-5.94934497 28.07151416 -4.39669668 25.58678671 -3.1875 20.75 C-2.89106192 14.82123847 -3.68125921 9.97811119 -7 5 C-9.74815415 2.25184585 -11.45791811 1.79267709 -15.25 1.625 C-20.5084335 1.69274149 -22.52222767 3.0981091 -26 7 Z " fill="#000000" transform="translate(457,670)"/>
<path d="M0 0 C5.17206295 4.69094082 6.8194118 9.24873955 7.21858215 16.11305237 C7.35273748 19.72117958 7.40342603 23.32724451 7.4375 26.9375 C7.46569898 28.44274211 7.49563182 29.9479528 7.52734375 31.453125 C7.60074292 35.11443617 7.65060126 38.77561788 7.6875 42.4375 C4.7175 42.4375 1.7475 42.4375 -1.3125 42.4375 C-1.6425 41.4475 -1.9725 40.4575 -2.3125 39.4375 C-2.80878906 39.72625 -3.30507813 40.015 -3.81640625 40.3125 C-8.48873758 42.86588031 -11.86625768 44.14349437 -17.3125 43.4375 C-21.93754462 41.71444416 -24.90421337 39.79094121 -27.3125 35.4375 C-28.11936369 30.51398483 -27.84304777 26.63123249 -25.8125 22.0625 C-21.35375233 17.38081495 -15.45606047 14.60900499 -8.953125 14.33984375 C-8.16421875 14.35144531 -7.3753125 14.36304688 -6.5625 14.375 C-5.76328125 14.38402344 -4.9640625 14.39304687 -4.140625 14.40234375 C-3.53734375 14.41394531 -2.9340625 14.42554688 -2.3125 14.4375 C-3.16923802 9.46661774 -3.16923802 9.46661774 -6.4375 5.9375 C-10.20757905 5.28183408 -13.59220976 5.77031345 -17.3125 6.4375 C-19.045 6.7159375 -19.045 6.7159375 -20.8125 7 C-21.6375 7.144375 -22.4625 7.28875 -23.3125 7.4375 C-23.6425 5.4575 -23.9725 3.4775 -24.3125 1.4375 C-16.29778214 -2.95151216 -8.38437787 -3.95489522 0 0 Z M-16.8125 23.5625 C-18.90615593 26.17956991 -18.88114742 28.27263913 -18.6875 31.55859375 C-18.41712748 33.59607376 -18.41712748 33.59607376 -16.8125 35.5 C-13.14502753 36.87530218 -9.96678307 36.62813731 -6.3125 35.4375 C-3.59514098 33.62525608 -3.59514098 33.62525608 -2.3125 30.4375 C-2.00401912 27.0750584 -2.07726295 23.80269666 -2.3125 20.4375 C-7.5640621 20.4375 -12.02279385 21.40713223 -16.8125 23.5625 Z " fill="#000000" transform="translate(530.3125,666.5625)"/>
<path d="M0 0 C2.97 0 5.94 0 9 0 C12.34365002 6.32582436 14.86221352 12.76113592 17.25 19.5 C17.61351562 20.51320313 17.97703125 21.52640625 18.3515625 22.5703125 C19.23883002 25.0453219 20.12152582 27.52185887 21 30 C21.29769287 29.16227051 21.59538574 28.32454102 21.90209961 27.46142578 C23.00622634 24.35624453 24.11148949 21.25147274 25.2175293 18.14697266 C25.6961768 16.8027344 26.17436952 15.45833411 26.65209961 14.11376953 C27.33848749 12.18218994 28.02650384 10.25119718 28.71484375 8.3203125 C29.12855225 7.15773926 29.54226074 5.99516602 29.96850586 4.79736328 C31 2 31 2 32 0 C34.97 0 37.94 0 41 0 C40.29160513 4.34896027 38.86923693 8.33436153 37.3046875 12.43359375 C37.03415558 13.14798111 36.76362366 13.86236847 36.4848938 14.59840393 C35.91029452 16.11123136 35.3335765 17.62325553 34.75488281 19.13452148 C33.89088851 21.39591391 33.03883451 23.66155119 32.1875 25.92773438 C21.09352468 55.17501414 21.09352468 55.17501414 9.75 61.9375 C7 63 7 63 4 63 C3.67 60.36 3.34 57.72 3 55 C3.79664063 54.56300781 3.79664063 54.56300781 4.609375 54.1171875 C9.2982935 51.39624574 12.66068359 49.08547046 15 44 C14.62745267 38.4314653 12.95645306 33.81460035 10.83984375 28.73046875 C10.53051407 27.96825516 10.22118439 27.20604156 9.90248108 26.42073059 C8.92154643 24.00655922 7.93020937 21.5968507 6.9375 19.1875 C5.94279186 16.75970111 4.95036295 14.33102176 3.96180725 11.90071106 C3.34809961 10.39331377 2.73057065 8.8874655 2.10887146 7.38334656 C0 2.22287221 0 2.22287221 0 0 Z " fill="#000000" transform="translate(860,665)"/>
<path d="M0 0 C2.97 0 5.94 0 9 0 C9.01981934 0.78125244 9.03963867 1.56250488 9.06005859 2.36743164 C9.15575472 5.93277318 9.26525339 9.49756442 9.375 13.0625 C9.4059375 14.29162109 9.436875 15.52074219 9.46875 16.78710938 C9.3588134 27.20008248 9.3588134 27.20008248 14 36 C18.07786338 36.55641421 18.07786338 36.55641421 22 36 C25.32916435 33.32700786 26.83883806 31.83421142 27.65942383 27.58666992 C27.67513428 26.31412354 27.69084473 25.04157715 27.70703125 23.73046875 C27.72215256 23.04946609 27.73727386 22.36846344 27.75285339 21.66682434 C27.79560078 19.50670937 27.80455435 17.34799507 27.8125 15.1875 C27.83565489 13.71675998 27.86102231 12.24605302 27.88867188 10.77539062 C27.9513916 7.18362029 27.98383125 3.59231596 28 0 C30.97 0 33.94 0 37 0 C37.33 14.52 37.66 29.04 38 44 C35.36 44 32.72 44 30 44 C29.34 42.68 28.68 41.36 28 40 C26.6078125 40.9590625 26.6078125 40.9590625 25.1875 41.9375 C20.5886855 44.9132035 17.42730522 45.3679529 12 45 C7.32894693 43.25980376 4.63636319 41.23701227 2 37 C-0.57579857 29.42788293 -0.22593102 21.92696718 -0.125 14 C-0.11494978 12.63932951 -0.10582754 11.27865183 -0.09765625 9.91796875 C-0.0742082 6.61179353 -0.04138856 3.3059912 0 0 Z " fill="#000000" transform="translate(1025,665)"/>
<path d="M0 0 C2.97 0 5.94 0 9 0 C9 17.16 9 34.32 9 52 C17.25 52 25.5 52 34 52 C34 54.64 34 57.28 34 60 C22.78 60 11.56 60 0 60 C0 40.2 0 20.4 0 0 Z " fill="#000000" transform="translate(581,649)"/>
<path d="M0 0 C0 3.96 0 7.92 0 12 C3.63 12 7.26 12 11 12 C11 14.64 11 17.28 11 20 C7.37 20 3.74 20 0 20 C0.13837796 24.29194146 0.28695939 28.58346929 0.4375 32.875 C0.47681641 34.09832031 0.51613281 35.32164062 0.55664062 36.58203125 C0.61948242 38.33193359 0.61948242 38.33193359 0.68359375 40.1171875 C0.72025146 41.19597168 0.75690918 42.27475586 0.79467773 43.38623047 C0.83376643 45.98069536 0.83376643 45.98069536 2 48 C3.89533342 48.46523063 3.89533342 48.46523063 6.0625 48.625 C8.0115625 48.810625 8.0115625 48.810625 10 49 C10.33 51.31 10.66 53.62 11 56 C6.31397871 57.49952681 1.77334917 57.8060678 -2.75 55.75 C-6.35449895 52.94650081 -8.15014241 50.4698728 -9 46 C-9.08091092 43.97531289 -9.10758899 41.94815381 -9.09765625 39.921875 C-9.09443359 38.76171875 -9.09121094 37.6015625 -9.08789062 36.40625 C-9.07951172 35.1996875 -9.07113281 33.993125 -9.0625 32.75 C-9.05798828 31.52796875 -9.05347656 30.3059375 -9.04882812 29.046875 C-9.03704815 26.03120054 -9.02059853 23.01562502 -9 20 C-10.98 20 -12.96 20 -15 20 C-15 17.36 -15 14.72 -15 12 C-13.02 12 -11.04 12 -9 12 C-9 8.7 -9 5.4 -9 2 C-2.25 0 -2.25 0 0 0 Z " fill="#000000" transform="translate(1000,653)"/>
<path d="M0 0 C0 3.96 0 7.92 0 12 C3.63 12 7.26 12 11 12 C11 14.64 11 17.28 11 20 C7.37 20 3.74 20 0 20 C0.13837796 24.29194146 0.28695939 28.58346929 0.4375 32.875 C0.47681641 34.09832031 0.51613281 35.32164062 0.55664062 36.58203125 C0.61948242 38.33193359 0.61948242 38.33193359 0.68359375 40.1171875 C0.72025146 41.19597168 0.75690918 42.27475586 0.79467773 43.38623047 C0.83376643 45.98069536 0.83376643 45.98069536 2 48 C3.89533342 48.46523063 3.89533342 48.46523063 6.0625 48.625 C8.0115625 48.810625 8.0115625 48.810625 10 49 C10.33 51.31 10.66 53.62 11 56 C6.31397871 57.49952681 1.77334917 57.8060678 -2.75 55.75 C-6.35449895 52.94650081 -8.15014241 50.4698728 -9 46 C-9.08091092 43.97531289 -9.10758899 41.94815381 -9.09765625 39.921875 C-9.09443359 38.76171875 -9.09121094 37.6015625 -9.08789062 36.40625 C-9.07951172 35.1996875 -9.07113281 33.993125 -9.0625 32.75 C-9.05798828 31.52796875 -9.05347656 30.3059375 -9.04882812 29.046875 C-9.03704815 26.03120054 -9.02059853 23.01562502 -9 20 C-10.98 20 -12.96 20 -15 20 C-15 17.36 -15 14.72 -15 12 C-13.02 12 -11.04 12 -9 12 C-9 8.7 -9 5.4 -9 2 C-2.25 0 -2.25 0 0 0 Z " fill="#000000" transform="translate(290,653)"/>
<path d="M0 0 C-0.33 3.96 -0.66 7.92 -1 12 C2.63 12 6.26 12 10 12 C10 14.64 10 17.28 10 20 C6.37 20 2.74 20 -1 20 C-0.8859756 23.72979811 -0.75922003 27.45842022 -0.625 31.1875 C-0.5940625 32.24259766 -0.563125 33.29769531 -0.53125 34.38476562 C-0.49257813 35.40634766 -0.45390625 36.42792969 -0.4140625 37.48046875 C-0.3826416 38.41785889 -0.3512207 39.35524902 -0.31884766 40.32104492 C0.02022831 43.16995808 0.82257457 45.39520444 2 48 C4.64 48.33 7.28 48.66 10 49 C10 51.31 10 53.62 10 56 C6.27348227 57.24217258 2.87057926 57.5341253 -1 57 C-5.02552489 54.9126908 -7.41749719 53.25462759 -9 49 C-9.22705078 45.88378906 -9.22705078 45.88378906 -9.1953125 42.265625 C-9.18564453 40.32236328 -9.18564453 40.32236328 -9.17578125 38.33984375 C-9.15907193 36.97655981 -9.14214206 35.61327856 -9.125 34.25 C-9.1149634 32.87110015 -9.10583873 31.49219335 -9.09765625 30.11328125 C-9.07408093 26.74201118 -9.0411727 23.37109364 -9 20 C-11.31 20 -13.62 20 -16 20 C-16 17.36 -16 14.72 -16 12 C-13.69 12 -11.38 12 -9 12 C-9 8.7 -9 5.4 -9 2 C-2.25 0 -2.25 0 0 0 Z " fill="#000000" transform="translate(668,653)"/>
<path d="M0 0 C2.97 0 5.94 0 9 0 C9 20.79 9 41.58 9 63 C6.03 63 3.06 63 0 63 C0 42.21 0 21.42 0 0 Z " fill="#000000" transform="translate(478,646)"/>
<path d="M0 0 C0 2.64 0 5.28 0 8 C-1.258125 8.268125 -2.51625 8.53625 -3.8125 8.8125 C-6.9999896 9.6065566 -9.0328454 10.22284057 -11 13 C-12.42267862 15.84535725 -12.21971869 18.36218552 -12.31640625 21.5390625 C-12.35830078 22.84101562 -12.40019531 24.14296875 -12.44335938 25.484375 C-12.48317299 26.86458045 -12.52288522 28.24478883 -12.5625 29.625 C-12.60569407 31.01303415 -12.64930865 32.40105528 -12.69335938 33.7890625 C-12.79972 37.19260256 -12.90174714 40.59621778 -13 44 C-15.97 44 -18.94 44 -22 44 C-22.33 29.48 -22.66 14.96 -23 0 C-20.36 0 -17.72 0 -15 0 C-14.34 1.32 -13.68 2.64 -13 4 C-12.2575 3.360625 -11.515 2.72125 -10.75 2.0625 C-6.85783663 -0.85662253 -4.63424507 -1.48957877 0 0 Z " fill="#000000" transform="translate(850,665)"/>
<path d="M0 0 C0 2.64 0 5.28 0 8 C-0.61488281 8.08636719 -1.22976563 8.17273438 -1.86328125 8.26171875 C-2.67152344 8.40222656 -3.47976563 8.54273438 -4.3125 8.6875 C-5.11300781 8.81511719 -5.91351562 8.94273437 -6.73828125 9.07421875 C-9.91657544 10.37517855 -10.51400612 11.93409409 -12 15 C-12.50009694 18.28199457 -12.50009694 18.28199457 -12.51171875 21.83203125 C-12.54716797 23.12431641 -12.58261719 24.41660156 -12.61914062 25.74804688 C-12.64223681 27.10285934 -12.66501935 28.45767718 -12.6875 29.8125 C-12.72069761 31.18688117 -12.75518953 32.56123171 -12.79101562 33.93554688 C-12.87341264 37.29028234 -12.94259395 40.64475904 -13 44 C-15.64 44 -18.28 44 -21 44 C-21 29.81 -21 15.62 -21 1 C-19.02 1 -17.04 1 -15 1 C-15 3.64 -15 6.28 -15 9 C-14.34 9 -13.68 9 -13 9 C-12.95875 8.2575 -12.9175 7.515 -12.875 6.75 C-12 4 -12 4 -9.3125 1.6875 C-5.81897751 -0.09221901 -3.85317399 -0.36696895 0 0 Z " fill="#0A0C07" transform="translate(765,665)"/>
<path d="M0 0 C2.97 0 5.94 0 9 0 C9 14.52 9 29.04 9 44 C6.03 44 3.06 44 0 44 C0 29.48 0 14.96 0 0 Z " fill="#000000" transform="translate(1137,665)"/>
<path d="M0 0 C2.97 0 5.94 0 9 0 C9 14.52 9 29.04 9 44 C6.03 44 3.06 44 0 44 C0 29.48 0 14.96 0 0 Z " fill="#000000" transform="translate(629,665)"/>
<path d="M0 0 C2.97 0 5.94 0 9 0 C9 14.52 9 29.04 9 44 C6.03 44 3.06 44 0 44 C0 29.48 0 14.96 0 0 Z " fill="#000000" transform="translate(316,665)"/>
<path d="M0 0 C0.66 0 1.32 0 2 0 C6.4203523 8.84070459 2.66591289 23.15816866 0.0703125 32.15625 C-1 35 -1 35 -3 37 C-8.02279401 29.96808838 -10.25493348 23.63242119 -9 15 C-6.98939856 9.48085901 -4.10080273 4.24220972 0 0 Z " fill="#C0DD90" transform="translate(879,281)"/>
<path d="M0 0 C3 2.0625 3 2.0625 5 5 C5.33 7.31 5.66 9.62 6 12 C-0.6 12 -7.2 12 -14 12 C-15 6 -15 6 -13.1875 3.1875 C-9.28220346 -0.71779654 -5.31975558 -0.79934151 0 0 Z " fill="#C2DF92" transform="translate(714,671)"/>
<path d="M0 0 C2.59080963 9.5536105 2.59080963 9.5536105 2 13 C0.21302449 15.15926208 -1.17224412 15.87841815 -3.94140625 16.28515625 C-6.87885142 16.40957842 -9.34416057 16.32791971 -12 15 C-13.63310417 11.73379167 -13.77752127 8.5059141 -13 5 C-8.79387564 0.68318816 -5.88015555 -0.12782947 0 0 Z " fill="#C2E092" transform="translate(797,687)"/>
<path d="M0 0 C0.33 2.31 0.66 4.62 1 7 C-0.625 8.625 -0.625 8.625 -3 10 C-6.25 9.1875 -6.25 9.1875 -9 8 C-10.31668238 2.6135721 -10.31668238 2.6135721 -9 0.0625 C-5.88995237 -1.58971281 -3.34272722 -0.69377357 0 0 Z " fill="#000000" transform="translate(1146,650)"/>
<path d="M0 0 C6.875 0.875 6.875 0.875 8 2 C8.3125 4.875 8.3125 4.875 8 8 C6.375 10 6.375 10 4 11 C0.75 10.1875 0.75 10.1875 -2 9 C-2.6875 6.75 -2.6875 6.75 -3 4 C-1.5625 1.6875 -1.5625 1.6875 0 0 Z " fill="#000000" transform="translate(631,649)"/>
<path d="M0 0 C3 0.25 3 0.25 5 2.25 C5.375 5.1875 5.375 5.1875 5 8.25 C3.3125 10.25 3.3125 10.25 1 11.25 C-1.39263407 10.58228817 -3.22097385 10.02902615 -5 8.25 C-5.1875 5.3125 -5.1875 5.3125 -5 2.25 C-3 0.25 -3 0.25 0 0 Z " fill="#000000" transform="translate(320,648.75)"/>
<path d="" fill="#000000" transform="translate(0,0)"/>
</svg>
